<svg xmlns="http://www.w3.org/2000/svg" width="191" height="114"><g opacity=".194" fill="#46535a"><path data-name="Fill 1" d="M188 6a3 3 0 113-3 3 3 0 01-3 3"/><path data-name="Fill 4" d="M173 6a3 3 0 113-3 3 3 0 01-3 3"/><path data-name="Fill 5" d="M173 22a3 3 0 113-3 3 3 0 01-3 3"/><path data-name="Fill 6" d="M173 37a3 3 0 113-3 3 3 0 01-3 3"/><path data-name="Fill 7" d="M173 52a3 3 0 113-3 3 3 0 01-3 3"/><path data-name="Fill 8" d="M173 68a3 3 0 113-3 3 3 0 01-3 3"/><path data-name="Fill 9" d="M173 83a3 3 0 113-3 3 3 0 01-3 3"/><path data-name="Fill 10" d="M173 99a3 3 0 113-3 3 3 0 01-3 3"/><path data-name="Fill 11" d="M173 114a3 3 0 113-3 3 3 0 01-3 3"/><path data-name="Fill 34" d="M157 6a3 3 0 113-3 3 3 0 01-3 3"/><path data-name="Fill 35" d="M157 22a3 3 0 113-3 3 3 0 01-3 3"/><path data-name="Fill 36" d="M157 37a3 3 0 113-3 3 3 0 01-3 3"/><path data-name="Fill 37" d="M157 52a3 3 0 113-3 3 3 0 01-3 3"/><path data-name="Fill 38" d="M157 68a3 3 0 113-3 3 3 0 01-3 3"/><path data-name="Fill 39" d="M157 83a3 3 0 113-3 3 3 0 01-3 3"/><path data-name="Fill 40" d="M157 99a3 3 0 113-3 3 3 0 01-3 3"/><path data-name="Fill 41" d="M157 114a3 3 0 113-3 3 3 0 01-3 3"/><path data-name="Fill 64" d="M142 6a3 3 0 113-3 3 3 0 01-3 3"/><path data-name="Fill 65" d="M142 22a3 3 0 113-3 3 3 0 01-3 3"/><path data-name="Fill 66" d="M142 37a3 3 0 113-3 3 3 0 01-3 3"/><path data-name="Fill 67" d="M142 52a3 3 0 113-3 3 3 0 01-3 3"/><path data-name="Fill 68" d="M142 68a3 3 0 113-3 3 3 0 01-3 3"/><path data-name="Fill 69" d="M142 83a3 3 0 113-3 3 3 0 01-3 3"/><path data-name="Fill 70" d="M142 99a3 3 0 113-3 3 3 0 01-3 3"/><path data-name="Fill 71" d="M142 114a3 3 0 113-3 3 3 0 01-3 3"/><path data-name="Fill 94" d="M126 6a3 3 0 113-3 3 3 0 01-3 3"/><path data-name="Fill 95" d="M126 22a3 3 0 113-3 3 3 0 01-3 3"/><path data-name="Fill 96" d="M126 37a3 3 0 113-3 3 3 0 01-3 3"/><path data-name="Fill 97" d="M126 52a3 3 0 113-3 3 3 0 01-3 3"/><path data-name="Fill 98" d="M126 68a3 3 0 113-3 3 3 0 01-3 3"/><path data-name="Fill 99" d="M126 83a3 3 0 113-3 3 3 0 01-3 3"/><path data-name="Fill 100" d="M126 99a3 3 0 113-3 3 3 0 01-3 3"/><path data-name="Fill 101" d="M126 114a3 3 0 113-3 3 3 0 01-3 3"/><path data-name="Fill 124" d="M111 6a3 3 0 113-3 3 3 0 01-3 3"/><path data-name="Fill 125" d="M111 22a3 3 0 113-3 3 3 0 01-3 3"/><path data-name="Fill 126" d="M111 37a3 3 0 113-3 3 3 0 01-3 3"/><path data-name="Fill 127" d="M111 52a3 3 0 113-3 3 3 0 01-3 3"/><path data-name="Fill 128" d="M111 68a3 3 0 113-3 3 3 0 01-3 3"/><path data-name="Fill 129" d="M111 83a3 3 0 113-3 3 3 0 01-3 3"/><path data-name="Fill 130" d="M111 99a3 3 0 113-3 3 3 0 01-3 3"/><path data-name="Fill 131" d="M111 114a3 3 0 113-3 3 3 0 01-3 3"/><path data-name="Fill 154" d="M95 6a3 3 0 113-3 3 3 0 01-3 3"/><path data-name="Fill 155" d="M95 22a3 3 0 113-3 3 3 0 01-3 3"/><path data-name="Fill 156" d="M95 37a3 3 0 113-3 3 3 0 01-3 3"/><path data-name="Fill 157" d="M95 52a3 3 0 113-3 3 3 0 01-3 3"/><path data-name="Fill 158" d="M95 68a3 3 0 113-3 3 3 0 01-3 3"/><path data-name="Fill 159" d="M95 83a3 3 0 113-3 3 3 0 01-3 3"/><path data-name="Fill 160" d="M95 99a3 3 0 113-3 3 3 0 01-3 3"/><path data-name="Fill 161" d="M95 114a3 3 0 113-3 3 3 0 01-3 3"/><path data-name="Fill 184" d="M80 6a3 3 0 113-3 3 3 0 01-3 3"/><path data-name="Fill 185" d="M80 22a3 3 0 113-3 3 3 0 01-3 3"/><path data-name="Fill 186" d="M80 37a3 3 0 113-3 3 3 0 01-3 3"/><path data-name="Fill 187" d="M80 52a3 3 0 113-3 3 3 0 01-3 3"/><path data-name="Fill 188" d="M80 68a3 3 0 113-3 3 3 0 01-3 3"/><path data-name="Fill 189" d="M80 83a3 3 0 113-3 3 3 0 01-3 3"/><path data-name="Fill 190" d="M80 99a3 3 0 113-3 3 3 0 01-3 3"/><path data-name="Fill 191" d="M80 114a3 3 0 113-3 3 3 0 01-3 3"/><path data-name="Fill 214" d="M65 6a3 3 0 113-3 3 3 0 01-3 3"/><path data-name="Fill 215" d="M65 22a3 3 0 113-3 3 3 0 01-3 3"/><path data-name="Fill 216" d="M65 37a3 3 0 113-3 3 3 0 01-3 3"/><path data-name="Fill 217" d="M65 52a3 3 0 113-3 3 3 0 01-3 3"/><path data-name="Fill 218" d="M65 68a3 3 0 113-3 3 3 0 01-3 3"/><path data-name="Fill 219" d="M65 83a3 3 0 113-3 3 3 0 01-3 3"/><path data-name="Fill 220" d="M65 99a3 3 0 113-3 3 3 0 01-3 3"/><path data-name="Fill 221" d="M65 114a3 3 0 113-3 3 3 0 01-3 3"/><path data-name="Fill 244" d="M49 6a3 3 0 113-3 3 3 0 01-3 3"/><path data-name="Fill 245" d="M49 22a3 3 0 113-3 3 3 0 01-3 3"/><path data-name="Fill 246" d="M49 37a3 3 0 113-3 3 3 0 01-3 3"/><path data-name="Fill 247" d="M49 52a3 3 0 113-3 3 3 0 01-3 3"/><path data-name="Fill 248" d="M49 68a3 3 0 113-3 3 3 0 01-3 3"/><path data-name="Fill 249" d="M49 83a3 3 0 113-3 3 3 0 01-3 3"/><path data-name="Fill 250" d="M49 99a3 3 0 113-3 3 3 0 01-3 3"/><path data-name="Fill 251" d="M49 114a3 3 0 113-3 3 3 0 01-3 3"/><path data-name="Fill 274" d="M34 6a3 3 0 113-3 3 3 0 01-3 3"/><path data-name="Fill 275" d="M34 22a3 3 0 113-3 3 3 0 01-3 3"/><path data-name="Fill 276" d="M34 37a3 3 0 113-3 3 3 0 01-3 3"/><path data-name="Fill 277" d="M34 52a3 3 0 113-3 3 3 0 01-3 3"/><path data-name="Fill 278" d="M34 68a3 3 0 113-3 3 3 0 01-3 3"/><path data-name="Fill 279" d="M34 83a3 3 0 113-3 3 3 0 01-3 3"/><path data-name="Fill 280" d="M34 99a3 3 0 113-3 3 3 0 01-3 3"/><path data-name="Fill 281" d="M34 114a3 3 0 113-3 3 3 0 01-3 3"/><path data-name="Fill 304" d="M18 6a3 3 0 113-3 3 3 0 01-3 3"/><path data-name="Fill 305" d="M18 22a3 3 0 113-3 3 3 0 01-3 3"/><path data-name="Fill 306" d="M18 37a3 3 0 113-3 3 3 0 01-3 3"/><path data-name="Fill 307" d="M18 52a3 3 0 113-3 3 3 0 01-3 3"/><path data-name="Fill 308" d="M18 68a3 3 0 113-3 3 3 0 01-3 3"/><path data-name="Fill 309" d="M18 83a3 3 0 113-3 3 3 0 01-3 3"/><path data-name="Fill 310" d="M18 99a3 3 0 113-3 3 3 0 01-3 3"/><path data-name="Fill 311" d="M18 114a3 3 0 113-3 3 3 0 01-3 3"/><path data-name="Fill 334" d="M3 6a3 3 0 113-3 3 3 0 01-3 3"/><path data-name="Fill 335" d="M3 22a3 3 0 113-3 3 3 0 01-3 3"/><path data-name="Fill 336" d="M3 37a3 3 0 113-3 3 3 0 01-3 3"/><path data-name="Fill 337" d="M3 52a3 3 0 113-3 3 3 0 01-3 3"/><path data-name="Fill 338" d="M3 68a3 3 0 113-3 3 3 0 01-3 3"/><path data-name="Fill 339" d="M3 83a3 3 0 113-3 3 3 0 01-3 3"/><path data-name="Fill 340" d="M3 99a3 3 0 113-3 3 3 0 01-3 3"/><path data-name="Fill 341" d="M3 114a3 3 0 113-3 3 3 0 01-3 3"/><path data-name="Fill 725" d="M188 22a3 3 0 113-3 3 3 0 01-3 3"/><path data-name="Fill 726" d="M188 37a3 3 0 113-3 3 3 0 01-3 3"/><path data-name="Fill 727" d="M188 52a3 3 0 113-3 3 3 0 01-3 3"/><path data-name="Fill 728" d="M188 68a3 3 0 113-3 3 3 0 01-3 3"/><path data-name="Fill 729" d="M188 83a3 3 0 113-3 3 3 0 01-3 3"/><path data-name="Fill 730" d="M188 99a3 3 0 113-3 3 3 0 01-3 3"/><path data-name="Fill 731" d="M188 114a3 3 0 113-3 3 3 0 01-3 3"/></g></svg>